<?xml version="1.0" encoding="UTF-8" standalone="no"?>
<!DOCTYPE svg PUBLIC "-//W3C//DTD SVG 1.1//EN" "http://www.w3.org/Graphics/SVG/1.1/DTD/svg11.dtd">
<svg version="1.1" xmlns="http://www.w3.org/2000/svg" xmlns:xlink="http://www.w3.org/1999/xlink" preserveAspectRatio="xMidYMid meet" viewBox="81.50276063098481 74.56478569341996 425.2358286716077 290.07435301041903" width="421.24" height="286.07"><defs><path d="M183.77 336.18C174.02 336.18 168.6 336.18 167.52 336.18C166.95 308.74 165.36 282.95 162.78 258.78C162.77 258.78 162.72 258.78 162.63 258.78L137.88 336.18L125.51 336.18L100.91 258.78C100.83 258.78 100.78 258.78 100.77 258.78C98.94 281.99 97.8 307.79 97.32 336.18C95.84 336.18 83.98 336.18 82.5 336.18C83.46 301.65 85.86 269.28 89.69 239.07C91.04 239.07 97.75 239.07 109.84 239.07L133.28 310.43L133.43 310.43L157.02 239.07C168.58 239.07 175.01 239.07 176.29 239.07C180.51 274.46 183.01 306.83 183.77 336.18M228.08 342.83C219.64 355.36 210.39 361.64 200.31 361.64C197.63 361.64 194.32 360.83 190.39 359.22C190.39 358.35 190.39 351.43 190.39 350.56C192.31 350.84 194.56 350.99 197.15 350.99C201.85 350.99 205.64 349.7 208.52 347.11C211.97 343.95 213.69 340.39 213.69 336.47C213.69 333.77 212.35 328.26 209.66 319.92C208.48 316.23 202.53 297.76 191.83 264.53L207.8 264.53C215.48 289.38 219.74 303.19 220.6 305.96C223.47 315.36 224.67 321.93 224.19 325.67C231.19 306.97 236.09 286.59 238.87 264.53C239.9 264.53 245.03 264.53 254.26 264.53L254.26 264.53C244.03 305.87 235.3 331.97 228.08 342.83Z" id="clsO1Lcce"></path><path d="M424.45 337.62L424.45 240.51L439.98 240.51L439.98 325.67L470.62 325.67L470.62 337.62L424.45 337.62ZM394.51 331.16C396.09 329.86 397.61 328.45 398.97 326.82C406.56 317.91 410.34 304.73 410.34 287.27C410.34 255.14 397.74 239.07 372.51 239.07C360.14 239.07 350.5 243.15 343.6 251.3C336.01 260.22 332.23 273.36 332.23 290.72C332.23 307.79 335.58 320.32 342.29 328.26C348.44 335.45 357.69 339.06 370.07 339.06C374.69 339.06 378.92 338.49 382.78 337.35C384.33 338.25 392.08 342.76 406.02 350.88L412.36 339.97C401.65 334.68 395.7 331.75 394.51 331.16ZM354.53 318.19C350.6 311.87 348.63 301.71 348.63 287.7C348.63 263.25 356.06 251.01 370.93 251.01C378.71 251.01 384.4 253.94 388.05 259.78C391.97 266.12 393.95 276.18 393.95 289.99C393.95 314.65 386.51 326.97 371.65 326.97C363.88 326.98 358.18 324.06 354.53 318.19M325.46 310.71C325.46 318.94 322.44 325.7 316.4 330.99C310.36 336.26 302.26 338.9 292.1 338.9C282.6 338.9 273.39 335.87 264.48 329.83C264.9 329 268.24 322.33 268.66 321.49C276.33 325.33 283.27 327.24 289.5 327.24C295.36 327.24 299.93 325.95 303.25 323.37C306.56 320.79 308.53 317.17 308.53 312.59C308.53 306.82 304.51 301.89 297.13 297.76C290.32 294.02 276.71 286.21 276.71 286.21C269.33 280.83 265.64 275.06 265.64 265.55C265.64 257.68 268.39 251.32 273.91 246.49C279.43 241.64 286.55 239.22 295.27 239.22C304.29 239.22 312.48 241.64 319.86 246.42C319.49 247.25 316.49 253.92 316.12 254.76C309.81 252.08 303.57 250.73 297.43 250.73C292.45 250.73 288.61 251.93 285.93 254.33C283.24 256.73 281.58 259.79 281.58 263.55C281.58 269.29 285.68 274.28 293.27 278.49C300.16 282.24 314.12 290.19 314.12 290.19C321.68 295.55 325.46 301.27 325.46 310.71" id="awA1qeZqV"></path><path d="M490.12 206.54C480.73 206.3 473.45 207.25 467.35 209.83C465.59 210.53 462.79 210.53 462.54 212.76C463.5 213.7 463.61 215.22 464.43 216.52C465.84 218.87 468.29 222.03 470.53 223.67C472.99 225.56 475.46 227.42 478.05 229.07C482.61 231.89 487.78 233.53 492.23 236.35C494.82 237.98 497.4 240.1 499.99 241.86C501.27 242.8 502.08 244.32 503.74 244.91C503.74 244.88 503.74 244.59 503.74 244.55C502.91 243.5 502.67 241.97 501.86 240.8C501.51 240.46 498.69 237.74 498.34 237.4C494.93 232.83 490.7 228.83 486.14 225.55C482.38 222.97 474.16 219.45 472.64 215.12C472.62 215.1 472.43 214.91 472.4 214.88C474.98 214.64 478.05 213.7 480.5 212.98C484.49 211.93 488.13 212.17 492.23 211.12C494.11 210.65 495.98 210.06 497.87 209.48C497.87 209.37 497.87 208.52 497.87 208.42C495.75 206.3 494.23 203.5 492 201.5C486.03 196.34 479.44 191.29 472.64 187.07C469 184.71 464.31 183.2 460.43 181.2C459.04 180.49 456.68 180.14 455.86 178.97C453.75 176.39 452.57 172.99 451.04 169.93C447.65 163.49 444.36 156.33 441.43 149.51C439.31 144.94 438.02 140.37 435.44 136.14C423.35 116.2 410.22 104.12 390.04 92.26C385.7 89.79 380.54 88.74 375.03 87.45C374.14 87.4 367.1 87.03 366.22 86.98C364.34 86.16 362.46 83.93 360.82 82.87C354.13 78.65 336.89 69.5 331.96 81.58C328.79 89.21 336.65 96.72 339.35 100.59C341.35 103.28 343.93 106.34 345.33 109.39C346.15 111.39 346.39 113.51 347.21 115.61C349.09 120.78 350.85 126.52 353.32 131.34C354.6 133.8 356.01 136.38 357.65 138.6C358.6 139.9 360.24 140.48 360.59 142.6C358.96 144.93 358.83 148.46 357.89 151.39C353.67 164.65 355.32 181.07 361.3 190.82C363.17 193.75 367.64 200.21 373.61 197.73C378.9 195.62 377.73 188.94 379.25 183.07C379.6 181.66 379.37 180.73 380.07 179.8C380.07 179.82 380.07 180 380.07 180.03C381.71 183.31 383.36 186.47 384.88 189.76C388.52 195.51 394.86 201.49 400.14 205.47C402.95 207.6 405.17 211.23 408.69 212.52C408.69 212.5 408.69 212.38 408.69 212.17C408.56 212.17 408.48 212.17 408.46 212.17C407.75 211.12 406.71 210.65 405.77 209.83C403.65 207.72 401.31 205.14 399.67 202.79C394.75 196.22 390.4 188.94 386.53 181.43C384.64 177.79 383.01 173.81 381.49 170.17C380.78 168.77 380.78 166.65 379.6 165.94C377.84 168.52 375.26 170.75 373.98 173.91C371.74 178.97 371.51 185.18 370.68 191.65C370.64 191.67 370.27 191.85 370.22 191.87C366.48 190.93 365.18 187.07 363.76 183.78C360.25 175.45 359.66 162.07 362.71 152.45C363.52 149.99 367.06 142.25 365.65 139.9C364.94 137.66 362.59 136.38 361.3 134.61C359.79 132.39 358.13 129.57 357.08 127.11C354.26 120.54 352.84 113.26 349.81 106.7C348.4 103.64 345.94 100.47 343.95 97.65C341.71 94.49 339.25 92.26 337.48 88.5C336.9 87.21 336.08 85.1 337.02 83.7C337.25 82.76 337.72 82.41 338.66 82.17C340.18 80.89 344.52 82.52 346.05 83.23C350.4 84.98 354.04 86.63 357.67 89.09C359.31 90.27 361.07 92.5 363.18 93.08C363.42 93.08 365.4 93.08 365.65 93.08C369.39 93.9 373.62 93.31 377.15 94.37C383.36 96.37 388.99 99.3 394.04 102.46C409.41 112.21 422.08 126.06 430.64 142.6C432.04 145.29 432.64 147.76 433.92 150.57C436.39 156.32 439.45 162.19 441.9 167.82C444.37 173.34 446.72 178.96 450.24 183.54C451.99 186.01 459.05 187.3 462.21 188.59C464.55 189.64 468.19 190.57 470.3 191.87C474.3 194.33 478.27 197.15 482.03 199.85C483.89 201.26 489.77 204.19 490.12 206.54M370.43 104.58C368.81 104.56 367.2 104.76 365.63 105.17C365.63 105.19 365.63 105.26 365.63 105.41C365.77 105.41 365.84 105.41 365.86 105.41C366.8 107.28 368.45 108.58 369.62 110.22C370.56 112.1 371.38 113.96 372.31 115.84C372.33 115.82 372.51 115.63 372.53 115.61C374.19 114.44 375.01 112.56 375.01 109.74C374.3 108.91 374.19 108.1 373.6 107.28C372.91 106.11 371.38 105.52 370.43 104.58" id="aIrhpwgc"></path><path d="M503.72 336.16L503.72 324.27L500.08 324.27L497.1 332.39L493.87 324.27L490.36 324.27L490.36 336.16L492.65 336.16L492.65 327.11L492.78 327.11L496.17 336.16L497.92 336.16L501.29 327.11L501.29 336.16L503.72 336.16ZM484.28 336.16L484.28 326.28L487.65 326.28L487.65 324.26L478.2 324.26L478.2 326.28L481.7 326.28L481.71 336.16L484.28 336.16Z" id="b16DrPIXL5"></path></defs><g><g><use xlink:href="#clsO1Lcce" opacity="1" fill="#ffffff" fill-opacity="1"></use><g><use xlink:href="#clsO1Lcce" opacity="1" fill-opacity="0" stroke="#000000" stroke-width="1" stroke-opacity="0"></use></g></g><g><use xlink:href="#awA1qeZqV" opacity="1" fill="#f8981d" fill-opacity="1"></use><g><use xlink:href="#awA1qeZqV" opacity="1" fill-opacity="0" stroke="#000000" stroke-width="1" stroke-opacity="0"></use></g></g><g><use xlink:href="#aIrhpwgc" opacity="1" fill="#ffffff" fill-opacity="1"></use><g><use xlink:href="#aIrhpwgc" opacity="1" fill-opacity="0" stroke="#000000" stroke-width="1" stroke-opacity="0"></use></g></g><g><use xlink:href="#b16DrPIXL5" opacity="1" fill="#f8981d" fill-opacity="1"></use><g><use xlink:href="#b16DrPIXL5" opacity="1" fill-opacity="0" stroke="#000000" stroke-width="1" stroke-opacity="0"></use></g></g></g></svg>